/* XPM */
static char *_9e81ea204cc45c69bccbb12d54288e7pNACNzZnDZ59CADT[] = {
/* columns rows colors chars-per-pixel */
"20 20 107 2 ",
"   c black",
".  c #0B1516",
"X  c #040A0A",
"o  c #081213",
"O  c #1C86B3",
"+  c #3296BD",
"@  c #142224",
"#  c #2E5053",
"$  c #030405",
"%  c #1B729C",
"&  c #63A7BF",
"*  c #233D40",
"=  c #32575B",
"-  c #1F3639",
";  c #090E0F",
":  c #49D1E5",
">  c #101E1F",
",  c #1C3134",
"<  c #4A7B91",
"1  c #B4F5FD",
"2  c #025984",
"3  c #2C3E41",
"4  c #2A494D",
"5  c #305458",
"6  c #136890",
"7  c #3A666A",
"8  c #182A2C",
"9  c #436266",
"0  c #69C2CE",
"q  c #D7F8FD",
"w  c #57ADB8",
"e  c #75E9F8",
"r  c #1A6D93",
"t  c #73C8DC",
"y  c #4399A5",
"u  c #5DD8E9",
"i  c #6FD5E3",
"p  c #406A6E",
"a  c #0E1718",
"s  c #3A6267",
"d  c #051C1F",
"f  c #62959C",
"g  c #26666E",
"h  c #5F8E95",
"j  c #284145",
"k  c #3F585D",
"l  c #93E6F1",
"z  c #B1E9F5",
"x  c #98EDF8",
"c  c #8FE0EB",
"v  c #A9B9BC",
"b  c #666F70",
"n  c #01456D",
"m  c #5C9AB1",
"M  c #355D61",
"N  c #1075A9",
"B  c #2989AF",
"V  c #23A2DA",
"C  c #227BA1",
"Z  c #6097A4",
"A  c #70B4C1",
"S  c #174C53",
"D  c #80B6BD",
"F  c #276B74",
"G  c #81DEEB",
"H  c #6CBAC9",
"J  c #7D8687",
"K  c #5CBDCA",
"L  c #547A7E",
"P  c #9ADFE9",
"I  c #A7BEC6",
"U  c #494F50",
"Y  c #5D6465",
"T  c #535858",
"R  c #0A292D",
"E  c #064E76",
"W  c #0C5780",
"Q  c #2C4C50",
"!  c #11608A",
"~  c #548AA1",
"^  c #6EDAEB",
"/  c #63A4BC",
"(  c #528086",
")  c #4E7076",
"_  c #77C1CB",
"`  c #1981AD",
"'  c #4B97A1",
"]  c #577F85",
"[  c #65A7BF",
"{  c #9ED2DA",
"}  c #2B3B3E",
"|  c #1A545B",
" . c #CCEFF6",
".. c #E4EEF4",
"X. c #8ED7DF",
"o. c #5CC7D5",
"O. c #747E81",
"+. c #3C4A4B",
"@. c #B0CFD8",
"#. c #292828",
"$. c #7DD3E1",
"%. c #35828D",
"&. c #7ACDDA",
"*. c #357E88",
"=. c #CFD6DA",
"-. c #97A7AD",
";. c #0B0A13",
/* pixels */
"t & & & & & & & [ & + + + + + + + + + V ",
"/ = = 5 # # # # # # # # # # # # 5 M 7 O ",
"m 4 * - 8 @ . o o . a > > . a 8 - * # ` ",
"m - @ a $   X } 3 a   s w S o $ X > , N ",
"~ . $ o @ ] Z G c D h j h l w | ;   o 6 ",
"< ; k A t u : : l x e K 3 O.@.P w ,   2 ",
"< ( ^ : : u i H  .1 1 e L   T ..q D S 2 ",
"< y : i Z ) 9 ; J q 1 X.+.Y I z 0 j $ 2 ",
"< y _ 3 X       $ J v U L l H F d     2 ",
"< h 3         ; . $   s K g d         2 ",
"r ' f 3       * H *.R o o             n ",
"6 y u t f b v b k P &.%.R $           n ",
"6 9 i : G x 1 q b U -.z $.7 X       $ E ",
"r $ 9 A l e 1 1 v   #.=.q { g X   $ @ W ",
"C ;   a 9 o.e c T Y I z 0 #     $ @ , ! ",
"C @ X     j f k p c 0 F .     ; @ , 4 6 ",
"B - @ a X $   * w g d   $ ; @ , * 4 = r ",
"B 4 * - 8 @ a > > . . a 8 - * Q 5 M 7 % ",
"+ = = 5 # # # # # # # # # 5 = s 7 p p % ",
"V O O O O O O O O O % % % % % % % % % N "
};
