/* XPM */
static char *b312d44112924918b3bbd5b9b30854a8VLAMUHvqstZqHOv5[] = {
/* columns rows colors chars-per-pixel */
"64 64 232 2 ",
"   c #040304",
".  c #0C0404",
"X  c #0D0A06",
"o  c #0C050A",
"O  c #050A0B",
"+  c #0C0B0C",
"@  c #05050B",
"#  c #120504",
"$  c #120A05",
"%  c #120709",
"&  c #140C0C",
"*  c #1A0E0D",
"=  c #1C0905",
"-  c #0C100D",
";  c #15120D",
":  c #1A110E",
">  c #0D0D11",
",  c #040710",
"<  c #140D12",
"1  c #1A0E12",
"2  c #0D1214",
"3  c #0E141A",
"4  c #0F1817",
"5  c #141214",
"6  c #1C1313",
"7  c #1D1915",
"8  c #14151A",
"9  c #1A161B",
"0  c #151A1C",
"q  c #1B1A1D",
"w  c #141915",
"e  c #220D0B",
"r  c #250C05",
"t  c #28120B",
"y  c #210D12",
"u  c #211514",
"i  c #221916",
"p  c #23151A",
"a  c #241A1B",
"s  c #291C1C",
"d  c #2A1A15",
"f  c #361B16",
"g  c #35160C",
"h  c #1C211F",
"j  c #27221D",
"k  c #38231C",
"l  c #161C21",
"z  c #1C1D22",
"x  c #101721",
"c  c #221E23",
"v  c #291E21",
"b  c #1C2225",
"n  c #1E2429",
"m  c #1C2824",
"M  c #222225",
"N  c #2C2224",
"B  c #23252A",
"V  c #2A262B",
"C  c #242A2D",
"Z  c #2A2A2D",
"A  c #292926",
"S  c #322425",
"D  c #32262A",
"F  c #342B2B",
"G  c #3A2929",
"H  c #262D31",
"J  c #2B2D32",
"K  c #2A2E39",
"L  c #322E33",
"P  c #392F30",
"I  c #2D3235",
"U  c #2E3439",
"Y  c #333335",
"T  c #33353A",
"R  c #343A3C",
"E  c #3B3A3E",
"W  c #3B3637",
"Q  c #2E312F",
"!  c #451C11",
"~  c #46251C",
"^  c #572C1D",
"/  c #472923",
"(  c #562C25",
")  c #4A322A",
"_  c #59362C",
"`  c #432C31",
"'  c #463636",
"]  c #583934",
"[  c #6A392B",
"{  c #753A2E",
"}  c #663C36",
"|  c #713D37",
" . c #632F21",
".. c #57423B",
"X. c #694438",
"o. c #744335",
"O. c #7B493A",
"+. c #73422F",
"@. c #363C41",
"#. c #3B3D42",
"$. c #373843",
"%. c #413E43",
"&. c #3C4245",
"*. c #3E4549",
"=. c #3B4546",
"-. c #424345",
";. c #42454A",
":. c #454A4D",
">. c #4A4B4E",
",. c #4A474B",
"<. c #574B4A",
"1. c #4A4D52",
"2. c #474D50",
"3. c #544E53",
"4. c #4C5255",
"5. c #4F5559",
"6. c #4F5855",
"7. c #52555A",
"8. c #555A5D",
"9. c #5A5A5D",
"0. c #555456",
"q. c #674946",
"w. c #734C43",
"e. c #784C47",
"r. c #6B504B",
"t. c #7C554C",
"y. c #795449",
"u. c #675657",
"i. c #7B5A56",
"p. c #684B53",
"a. c #5E605F",
"s. c #7C605B",
"d. c #69615F",
"f. c #565D61",
"g. c #5A5E62",
"h. c #5B6264",
"j. c #5E6468",
"k. c #62656A",
"l. c #656A6D",
"z. c #636466",
"x. c #6A6D71",
"c. c #666D70",
"v. c #7A6C74",
"b. c #6C7275",
"n. c #6F7478",
"m. c #737B7D",
"M. c #747679",
"N. c #756A69",
"B. c #7C5F61",
"V. c #824B3A",
"C. c #8A4D47",
"Z. c #835244",
"A. c #8C5D4D",
"S. c #88564B",
"D. c #945A4C",
"F. c #8D5C53",
"G. c #865A56",
"H. c #9B5B55",
"J. c #965A58",
"K. c #8B6258",
"L. c #936353",
"P. c #9B6454",
"I. c #94655C",
"U. c #9C645B",
"Y. c #996B5B",
"T. c #94624E",
"R. c #A46C5C",
"E. c #AA6C5D",
"W. c #A46759",
"Q. c #AC725C",
"!. c #9A6B64",
"~. c #9C7268",
"^. c #997874",
"/. c #8B6F6E",
"(. c #A46C63",
"). c #AA6A67",
"_. c #A37264",
"`. c #AC7265",
"'. c #AC756C",
"]. c #AE7A6E",
"[. c #A6756A",
"{. c #BC7D6C",
"}. c #B47768",
"|. c #A67A77",
" X c #B77A75",
".X c #B36D66",
"XX c #A05957",
"oX c #C27F6F",
"OX c #BB8374",
"+X c #B5847C",
"@X c #BB847C",
"#X c #B98677",
"$X c #B58473",
"%X c #C1846D",
"&X c #C2857B",
"*X c #C48C7D",
"=X c #C58775",
"-X c #777C81",
";X c #7B7E82",
":X c #A57581",
">X c #7B8284",
",X c #7F8789",
"<X c #848B8C",
"1X c #848689",
"2X c #878E92",
"3X c #8C9496",
"4X c #92999B",
"5X c #98888A",
"6X c #BA8A85",
"7X c #BB938A",
"8X c #BC9795",
"9X c #AF8F93",
"0X c #989EA1",
"qX c #9BA3A4",
"wX c #AFAAAC",
"eX c #C48C83",
"rX c #C78B87",
"tX c #CC948C",
"yX c #C89387",
"uX c #D1978C",
"iX c #C99995",
"pX c #D69B94",
"aX c #D28D90",
"sX c #CBA299",
"dX c #D6A697",
"fX c #D9A08D",
"gX c #C49EA5",
"hX c #D8A9A5",
"jX c #D8B6BA",
"kX c #CDA9A9",
"lX c #E6AEAB",
"zX c #E9CACF",
/* pixels */
"O b R R C b *.4.T l U g.T B L %.J c M q ;.R R :.B l b 3 0 0 8 z 4 m <X;.0 q c H R T ;.;.K $.$.U M H #.J ;.=.:.>X:.b J J C f.1.C ",
"b *.h.8.b.n T 4.;.C b 4.:.J L L z z 8 z 7.:.*.-.b 8 B 2 8 8 8 8 2 m <X:.5 q z z #.4.T R $.T B H Z B T J B H n.j.x.C Z H :.1X1XU ",
"&.h.h.wXqXU H &.7.=.B C 8.x.#.J M c M M #.#.k.4.z Z >.c j 7 6 5 q Z <X,.q z V E ;X1X:.4.R U R ;.z B #.R *.;.;X7.x.R B b f.n.-X@.",
":.>Xc.l.3XU I R x.*.B J :.x.9.Z z M z Z j.:.f.#.z M Y a W 7 5 Q :.M.wXqXZ Z %.M M.1Xh.8.C T >.T B Z 7.#.:.7.m.2Xz.*.H M :.<Xk.H ",
"U 4.=.l.>Xl H U :.U T 2.-.x.n.1.E M q R n.R 4.T 5 q c A ' j 5 Z J B #.k.8 z Z Z 1.U 4.b.M C a.#.0 #.n.*.*.@.T 4.T :.J M U h.#.n ",
"U R 4 >X3X0 b R f.U U 7.;.:.-.k.-.B z J j.H *.C 5 z 8 + + + 5 2 2 l q z B Z R T :.b &.8.M M >.#.M M T U 8.:.#.*.J 4.M M R 7.B n ",
"R R R 4XwX8.3 I 7.T b ;.#.R T M V 9 B C U 0 ;.n > @ @ @ > 2 3 2 2 2 B z 8 H H 4.-XC U 5.T H #.J b J 1.C U #.f.:.U ;.J J J 1X*.C ",
"C I m m 2.2.H U j.:.B l T 1.#.z z V c l ;.J J > > < 9 < 5 < O 2 5 5 q 8 q z > @.h.H U ;.U T #.#.z C 7.C 1.2.7.n.J 2.C M 7.;Xl.C ",
"0 M C I 8.*.2.4.f.*.R J H 8.1.z z c z q E q o X 1 1 u * * : $ & % & * & 6 s a M B C 4.k.B T J M z M 2.U ;.I *.m.T *.B b k.4.l.U ",
"4 0 I 4.<X:.*.f.h.C ;.f.U 7.4.B z M z M N $ * d f f ~ ~ / / k k k k f k f d s : N Z E R B H U $.z #.l.R f.;.#.n.U *.B B 1.-Xh.n ",
"U Y 0 :.m.=.U 4.>XU B 1.#.f.:.l l M z 7 % t ) X.y.S.A.F.L.L.A.A.A.K.L.Y.K.i.q.f * F Y E I H 5.J 0 U 8.J #.J k.3X;.M Z M U 5.U n ",
"I T =.m.qXb.I &.b.:.b C ;.8.1.l 0 n z % = ] t.K.L.P.R.Q.Q.Q.Q.R.P.P.P.P.Y.[.|.s.t * N A I I @.I z J #.b 4.R :.8.#.J Z B J J l C ",
"q C 3X:.,X4X*.:.c.5.U I b =.:.b l z c # ~ t.A.D.P.Q.Q.Q.}.}.}.}.E.W.E.`.`.[.[.+XX.e S N M I *.C 0 Y 7.B *.R l C C ;.M z 2.>X#.b ",
"0 C qX=.b.>XR R @.n 8.<X:.U Y B l 0 a = } L.D.W.}.%X%X%X%X%X%X%X{.{.%X%XOX#X+X8X/.f j ,.M Z =.R b B 8.#.U C C B U #.M z k.4Xk.b ",
"I C ,X4.l.m.4 H f.l h.2X>X#.#.J 0 q u d e.I.W.}.=XuXuXyXyXyXyXeX&X*X*XeXeXtXiX7X^.q.S <.M H j.U 0 J 1.R T n 1.l.U R B Z k.8.x.C ",
"R R :.1XqX8.2 b :.C 4.2X,Xf.;.b 8 q u / S.P.E.{.*XfXfXpXuXtXuXrX*X*X*XyXyXiXdX8X9X^.' c E J ;.C 8 #.f.U R b *.n.U #.B l f.;X5.b ",
"B Q m =.>XR 0 b 8.C R 4.*.l.;.q 6 i i _ F.(.`.OX*XuXsXiXtXuXyXyX*XOXeXyXiXiXiXiXkX8Xu.V L %.9.Z q C #.J B b J k.U :.l M T 1.B C ",
"h h I C R C n C U 0 R U b :.:.b 9 a j ..~.`.`.#XyXdXdXiXiXuXtXyXOXtX6X|.|.^.iXkXjXjXv.E V L Y Z q -.8.l B z 8.>X;.;.n C U M J M ",
"4 4 M B &.I n *.h.0 R >XC J #.B 8 8 a i.I.`.$XI.t.K.^.8XiXiXpXtX6X!./ f f / q.8XzXjX5X%.M J C C 8 -.4.U B b U ;.U R B z T g.I B ",
"0 h 8 C m.C n =.h.n T 4X4.;.:.0 3 z s i.~.'.o.! ~ / f ) ~.iXpXyX!.~ ) r.s.i.B.p.p.9Xv.L H l b b 0 Z ;.C *.J b b H l M B g.-X7.M ",
"0 0 U b.0X:.m H j.C I ,X5.f.7.8 0 q u r.G._ ( K.6X|.G.w.( t.K.t._ w.K./.|.|.gXjX/.9Xp.` L B z H 0 #.g.C k.U B H J @.l H k.;.j.n ",
"b B ,X4.4.<XC R :.l @.c.@.b.j.0 - ; e / ] _ !.t.G.t.O.S.G.! |.S.] t.w.X.( e.^.jXgXgX:X9X3.V 1.z 0 R 1.C U B 8.c.#.U b n g.-X*.B ",
"U ;.3X&.j.m.R :.4.0 U *.J *.;.b 2 i q.| S.Y.L.~ X.f _ | S.| &X(.| | e.[ [ F.~.|.8X8XaX|.] V g.L 8 B B l 8.4.7.;.l.U B n J #.B n ",
"C U x.5.3Xm.0 *.f.0 I b.@.U R l - d G.J.S.P.P.Z.~.!.G.J.U.S.{.).C.S.F.Y.'.@X6XrX8XiXaX X] a Y M z l T C R 2.7.@.k.U n n J M n H ",
"z l :.n.0Xj.2 m :.b 1.<Xl.C 0 5 - j X.J.P.P.OX].]. X XrX`.(.{.{.(.!.$X_.`. X6X+XiXsXJ.~.] j -.C 0 B J T 7.U f.j.#.U z B Y #.M M ",
"8 z 8 H =.b 0 4 8.0 5.:.1.R C 8 + = e.F.Z.Y.`.&XeX&XaXaXH. X*X&XtXS.A.#X*X{.).6XlX8X!.w.k E 6.C 0 J *.U ;.C B J I $.n 8 1.-XB B ",
"> > 0 > 2 8 > 8 3 O U 4.B T #.5 ; . / G.F.].'._.eXeX}.C. XuXpXpXlXhXF.F.`.'.eXhXjX7X6Xq.$ M R 0 8 q T 0 Y B 0 8 b b 8 q z -.8 0 ",
"8 #.E M b b l I f.b T 8.R :.;.q + 6 e K.K.(.tXdX+X].J.'. XW. X'.S.6X@XS.).pXtXhXjX6X8X] 5 M I l 8 Z Y 8 -.z l M B l z z Y k.B M ",
"z *.b M Y 0 0 C :.2 R f.4.:.Z 8 3 8 . q.I.U.yXdXtX!.eXaX).(.W.U.(.F.J.(.H.H. XeXiX8XkX' c z H z 8 Z L M T J :.0.B M M z T 7.V B ",
"> 8 2 5 U Y b C B b Y x.#.:.R @ 3 8 & ' !.H.}.{.H.'.iXrXaXaX@X[. X6X|. X).H.H.[.6X8Xu.u a M %.c 8 J :.c 7.#.1.-.f.J q M B z M z ",
"c 1.:.z M Y T B B b &.b.M R &.+ > 8 X d w.L.`.E.H. XOX X X).U.U.F.I.!.U.C.D.P.R.#X6Xi 7 c V ,.9 5 Z Y M B #.-.Y 1.B z 8 Z L q M ",
"Z 9.9.B B Z Y T C 8 U m.J M B > + 5 ; $ k I.P.`.E.C.{ C.).).eX'.6XtX+X[ { H.`._.7X^.S w z V ,.N 5 Y -.M z M 3.0.E Z q z 0.g.T q ",
"5 Z M q T B M T J 2 E n.m.:.z > O w + 5 e y.Y.E..X.XH.D.@XaXlXhXaXrX@XeX&X`.(.[.8X..a q c B R 8 5 T E q V z B J V J q V 3.T ;.8 ",
"z M + q Z B q V J 8 B Y z.h.B O + O - q & G I.R..X{.eXU.C.'..X).).J.tXpX*X X'.|.^.S 5 H z M :.0 5 M B z -.B 9 z V J 8 z 9.7.T 8 ",
"M 9.-.5 M M M 8 q q E 9.Z >.&.  O 6 + + a = } A.E.OX}.@X(.U.XXH.J.(.tX&X&XyX[.^./.d.N 2 B J T q q Y -.M L c V q J V c q Y E l 8 ",
"5 Y 7.5 5 8 8 q 5 > 7.k.:.B q 5 & @ 2 2 + = ] Z.D.`.OXOX'.).).).). X@X@XuX#X!.7X^.<.Z 0 q L :.M + J T B ,.#.J z L J J B z q 0 M ",
"O Z q & M 5 + 8 8   5.k.k.b 2 + o 5 - O X $ _ Y.O.V.`.OX@XeX&X X X6XyXpXyX_.[.sXs.i V q < q Y 5 5 M B B Z J J M M z z 0 M q 8 q ",
"+ O   5 z 5 + 8 q > Y x.9.Z 2 > O q O O - . ) Y.P.V.+.`.rXeXeX@X X@XrX XR._.+XsXr.. N z q q I w O Y Y l 8 z z z c 0 L z M c z q ",
"+ W Y O q 5 q + 8 8 E &.R :.b   @ > O - ; $ ~ I.P.D.{ [ Z._._.Y.F.F.F.F.U.`.+XiXq.e p 9 q 8 Q w 5 M M 8 0 Z J q M q #.B 8 8 q q ",
"; Y 0.5 8 M q z 5 > Y :.:.R M 2 + 5 + - X $ t K.(.W.D.{  .^ ( ( ^ ^ o.Y.'.'.+X7X~ G N 5 q J 4.8 > Z Z 8 8 z Z z z q B 8 z z < q ",
"@ Z Z O q 5 M Z 5   >.M.9.M q > + + - X X : r _ [.W.E.D.O.[ ! ! ! [ _.#X].[.+Xw.r ' p 9 5 8 h 5 + E E q 8 c B q q q M q q q 8 8 ",
"@     5 O z >.Y q 5 Y -.0.5 5 & & 5 5 X ; : = g L.].R.R.P.L.Z.[ [ L.].$X]._.G.t f ` p a N 5 q q + M Z q #.L Y z q z E z z z 8 q ",
"+ T q + > Y 0.B q 5 M -.z.j + 5 1 6 1 . ; : e = ( ~._.P.D.P._.P.P._.].].L.y.( = / ` p & N c v 6 5 9 c 9 -.M #.%.> 8 Y 8 8 5 > q ",
"8 0.Z   5 q Y B Y c 9 q A 6 5 6 1 1 & $ & : u e r w._.Y.D.V.P.R.L.P.P.O.w.X.t e G P p   9 D D 1 < a c 8 %.M #.E B c q 8 q q 8 q ",
"l 5.J @ z 8 9 B E q 7 6 & 6 6 & 1 % : : $ : 6 u e f w.L.L.V.O.O.V.o.{ o.t./ # k S S 6   & N S u & N N 5 W Z >.-.T L c q 8 5 5 z ",
"l 0 + 8 c 5 < M L o 5 6 7 6 & 6 6 % : : . 6 6 6 d t ~ y.A.D.Z.o.[ [ o.O.} t e k G a & o o M s % % 7 V M W q #.,.T E #.c q 5 5 M ",
"B R q + z 8 + 5 a 6 6 & 6 u * : ; & ; : . & 6 u y e f ^ +.S.A.Z.O.[ o.e.~ r d S S * o o @ q v . % $ a P E 6 5 8 Y Z M < q q > 8 ",
"C >.#.9 Z 9 5 5 < 6 6 6 & 6 % : & & : 7 6 . 6 6 * # g g _ o.o.e.+.o.S.X.f f = D N # o X   ; a $ & * $ s a M q 9 V V 5 8 8 5 5 z ",
"8 T z.9.-.7 5 6 6 6 6 & 1 & & 9 6 X 6 7 & X & 6 # S ] _ _ _ } w.e.G.e._ ) t * D 6 X o X   X N $ $ : : 6 a N V v N D W 9 8 5 > 0 ",
"2 > z.V & 6 : 6 6 u 6 6 < $ < 9 1 $ 6 a 5 < + X F P ` <.B.i.r.r.G.^.^.^.f d P 6 5 O O + . X a % $ : : : 6 a N v F D D a 8 8 2 l ",
"+ B 0.q 5 a i 6 6 a 6 6 & . 1 6 * $ : u 6 6 & . 0.' . ' u.N.9XwXwX9X5X' . N.0.+ 5 O X & . . i & $ : : & * u N N D N p < 9 > 2 8 ",
"V 0.Z 5 6 & i u u a 6 6 & . 6 6 : $ : u u i 6 * & o & L v.v.1XwXwXwX1X6 o E N o < X $ & X . 6 : $ : : : * 6 s N D F v & q 5 > 8 ",
"5 F 5 7 7 i a u i i : 6 & . 6 6 : $ * u u u p p 1 < < + > B $.f.f.7.T 8 + + o 6 < $ & & & . ; 6 $ * : : : 6 a s D D D a 6 5 > 8 ",
"5 7 6 6 6 i 6 6 i i * : & & 5 ; ; X : i u u u p & v 1 < 8 , x n H 0 8 > > 5 o 1 1 * * * : X X 6 $ * : 6 6 6 u a S u N P 5 < + 8 ",
"& 6 6 6 a u u i u u * & & & & 6 < X 6 a 6 u u u p 1 6 a < q > l B 0 > o 1 < 1 6 1 6 6 * 6 $ X 6 $ & * 6 6 * 6 6 s u D W N & < 5 ",
"6 6 6 6 6 i 6 u u u 6 % : & $ 6 > > 9 9 6 a a u u u p & 6 6 5 5 < > o 1 6 u 1 u u u 6 * 6 & X 5 $ & * 6 : & : 6 * a D D W X < 5 ",
"u u 6 * : u i u u u 6 $ 6 & $ 6 + > z 6 6 6 u i u 6 u u 6 u % 6 V   p p 1 u u u u 6 6 * i 6 . 5 & $ 6 : 6 $ : * * S a F P 6 < & ",
"6 u u 6 6 : 6 u 6 u 6 & 6 $ & 6 o < a 6 6 6 u 6 : s u : u * * u.<.& 1 6 u 6 : 6 : : 6 : 6 6 o < 6 & & 6 : & * & u s a N N D o 6 ",
"6 6 6 u 6 : : 6 6 6 6 : 6 . ; : # 6 u u * 6 i 6 6 i 6 6 a 6 % D D $ 6 i 6 ; : 6 : : 6 : 6 6 % & a * $ 6 & ; & : a 6 a u v P $ 6 ",
"u 6 6 6 u 6 6 : 6 6 6 6 6 . 5 $ # u : u * : i 6 i 6 a a 1 6 * # ; & 7 : ; : 7 ; 6 ; 6 6 6 6 & % 6 & & 6 X & & 6 6 * u 6 N P 6 6 ",
"6 6 6 6 6 u 6 6 6 6 6 6 6 . 1 # * : * u : : 6 u a 6 6 6 9 1 < 6 6 ; 6 6 7 6 7 6 6 6 6 6 6 6 & o & $ & 5 $ & ; : % 6 % a s P p 6 ",
"6 6 u 6 : 6 6 6 6 6 & & & % & $ 6 : * u 6 * 6 u a p 9 6 a & X 5 ; & 6 7 6 : 6 6 6 6 6 6 6 6 & . & $ & & & & ; X & & * u a D s 6 ",
"6 6 u 6 : : 6 6 1 1 & & $ & & 5 6 & 6 6 6 6 6 p p p v u & $ 6 6 a : 6 6 1 u u u u u 6 6 6 ; & X & o & & & + & X & & u 6 s s N u ",
"u 6 6 6 6 : & & & 1 $ $ % 6 & 6 ; X 6 6 9 6 6 p a u p 6 * & 7 : 6 % u u y u y p u p 6 6 6 & & X & o X & X X & & $ 6 1 a s p D u "
};
