/* XPM */
static char *a753dcf1574c4e128b6cbcd6c221318anAf6YzZfZuwHoAtT[] = {
/* columns rows colors chars-per-pixel */
"20 20 67 1 ",
"  c #000101",
". c #070A0A",
"X c #176A94",
"o c #0ABAD0",
"O c #1A2D2F",
"+ c #2D8EB5",
"@ c #609FB7",
"# c #1B2F31",
"$ c black",
"% c #177EAB",
"& c #5E9FB6",
"* c #233A3C",
"= c #0B1314",
"- c #1E3437",
"; c #2E4649",
": c #49CFE2",
"> c #162324",
", c #141718",
"< c #40CEE1",
"1 c #54D2E4",
"2 c #24C5DA",
"3 c #343C3F",
"4 c #2C8DB4",
"5 c #166993",
"6 c #17181A",
"7 c #020303",
"8 c #2F5255",
"9 c #729097",
"0 c #73D9E9",
"q c #46575C",
"w c #679FA8",
"e c #5A838A",
"r c #677D81",
"t c #4B7076",
"y c #3AC9DB",
"u c #8EE0EE",
"i c #698A8E",
"p c #283F41",
"a c #1C3032",
"s c #819399",
"d c #7AC4D8",
"f c #93D1DF",
"g c #79B5C0",
"h c #2A2C2D",
"j c #A4E6F3",
"k c #6BC5D4",
"l c #737677",
"z c #44676B",
"x c #7CA4AB",
"c c #5D6B70",
"v c #63D5E6",
"b c #8DBAC5",
"n c #3290B5",
"m c #325659",
"M c #1F292B",
"N c #5E8D92",
"B c #4B5F61",
"V c #4E7D83",
"C c #233638",
"Z c #219ED6",
"A c #82DEED",
"S c #176C96",
"D c #90A7AC",
"F c #6C858D",
"G c #9BA7AC",
"H c #0B71AB",
"J c #156892",
/* pixels */
"d&@&&@@@@&n++++4++4Z",
"&m8*-a########aC*8m%",
"@8*>=7   $$   7=>*8%",
"&*>.$$$$$.>$$$$$.>*%",
"&-=$$$$$$cs7$$.7$=C%",
"@a7$h.$$,bj3$6s,$7a%",
"@# $9F.$quu3=wf6$ #%",
"@# $9j3.b<v9w<d6$ #%",
"@# $tAxc0o:jyok,$ #%",
"&# $6dkb:oyuo2g,$ #%",
"n# $,kyA1o20o<z$$ #S",
"+# $$ty2u<o1::q$$ aX",
"+O7hlGvo1vo210Dlh7#X",
"4*lsBrg::<210grB9c*5",
"4pri;;MqeffeqM;;irpJ",
"+O.3ixNVewweVNxi3.OX",
"+#$$$=C;zttz;C=$$$#X",
"+-.$ $$$$  $$$$ $.-5",
"4p-##############-p5",
"Z%%%%%%%%%SXXXXXX55H"
};
