/* XPM */
static char *_10bec40e7914ea4f734e2e5f24e17b7Gr2hu23okvlNMjYQ[] = {
/* columns rows colors chars-per-pixel */
"64 64 242 2 ",
"   c #07070D",
".  c #0C0D14",
"X  c #070E16",
"o  c #0D1117",
"O  c #0D131B",
"+  c #0F1A1E",
"@  c #13151C",
"#  c #14191F",
"$  c #1A1A1E",
"%  c #181419",
"&  c #271B1C",
"*  c #33191B",
"=  c #2A201D",
"-  c #36211D",
";  c #141B23",
":  c #1B1D24",
">  c #1A1F29",
",  c #141822",
"<  c #0F1720",
"1  c #231D24",
"2  c #251D27",
"3  c #1B2127",
"4  c #1C232C",
"5  c #1A242A",
"6  c #1E2631",
"7  c #1F2831",
"8  c #242225",
"9  c #2C2425",
"0  c #23242C",
"q  c #2B242B",
"w  c #2C292D",
"e  c #24282E",
"r  c #33272B",
"t  c #322B2C",
"y  c #3C2C2C",
"u  c #372624",
"i  c #232631",
"p  c #242B33",
"a  c #2B2C34",
"s  c #252E39",
"d  c #2A2E39",
"f  c #2D2734",
"g  c #332D33",
"h  c #382E36",
"j  c #2C323C",
"k  c #2A3239",
"l  c #343236",
"z  c #33343C",
"x  c #3C343B",
"c  c #39373B",
"v  c #39312F",
"b  c #441F1A",
"n  c #462C27",
"m  c #48312A",
"M  c #56332C",
"N  c #4C3C3C",
"B  c #463737",
"V  c #573835",
"C  c #552A28",
"Z  c #683C34",
"A  c #66433A",
"S  c #71453C",
"D  c #5C403C",
"F  c #2E3942",
"G  c #2E3742",
"H  c #323642",
"J  c #343B44",
"K  c #3B3C45",
"L  c #353D49",
"P  c #3B3E49",
"I  c #383542",
"U  c #443E44",
"Y  c #533F48",
"T  c #3C434C",
"R  c #3A4249",
"E  c #3D4651",
"W  c #3D4852",
"Q  c #444146",
"!  c #42444D",
"~  c #49474C",
"^  c #57464A",
"/  c #434551",
"(  c #444A53",
")  c #4A4C55",
"_  c #454E59",
"`  c #4A4E5A",
"'  c #494752",
"]  c #544D55",
"[  c #4B535C",
"{  c #49535A",
"}  c #52545D",
"|  c #5A545A",
" . c #684A45",
".. c #764C46",
"X. c #79544E",
"o. c #715756",
"O. c #79605E",
"+. c #4D5661",
"@. c #4D5962",
"#. c #525661",
"$. c #535B64",
"%. c #565E69",
"&. c #5C5F6A",
"*. c #5B5B64",
"=. c #635E64",
"-. c #56616B",
";. c #5C636D",
":. c #586269",
">. c #5D6872",
",. c #5F7279",
"<. c #63646C",
"1. c #67656A",
"2. c #796463",
"3. c #626671",
"4. c #636B74",
"5. c #686D78",
"6. c #6B737C",
"7. c #68747C",
"8. c #72737C",
"9. c #716F74",
"0. c #854B3F",
"q. c #86564C",
"w. c #875D56",
"e. c #8B554F",
"r. c #886458",
"t. c #96665B",
"y. c #8B604F",
"u. c #A1675E",
"i. c #976A63",
"p. c #9A736B",
"a. c #877676",
"s. c #987A78",
"d. c #8A6A67",
"f. c #A66D64",
"g. c #A7766A",
"h. c #B3796C",
"j. c #A57973",
"k. c #B77C75",
"l. c #C37E79",
"z. c #A9837A",
"x. c #B98579",
"c. c #BA8772",
"v. c #9E8076",
"b. c #C68979",
"n. c #CB947B",
"m. c #CC8E79",
"M. c #6B7983",
"N. c #737B84",
"B. c #787C87",
"V. c #897D86",
"C. c #C77F80",
"Z. c #7A838D",
"A. c #768388",
"S. c #7D8792",
"D. c #6C8087",
"F. c #85848C",
"G. c #828C94",
"H. c #868994",
"J. c #8A939D",
"K. c #85929A",
"L. c #988D91",
"P. c #AC8884",
"I. c #BA8B84",
"U. c #B99389",
"Y. c #BA9994",
"T. c #AA9294",
"R. c #8B9AA2",
"E. c #949BA3",
"W. c #A19BA1",
"Q. c #96A5AC",
"!. c #9BACB4",
"~. c #AFAFB6",
"^. c #BAA09F",
"/. c #C78C84",
"(. c #CC9285",
"). c #C8978B",
"_. c #D39683",
"`. c #D49A84",
"'. c #D49C8B",
"]. c #DB9C8B",
"[. c #D49789",
"{. c #CB9C93",
"}. c #C69893",
"|. c #D99A95",
" X c #D38D8B",
".X c #E29E98",
"XX c #D7A28C",
"oX c #CCA298",
"OX c #D5A493",
"+X c #DCA394",
"@X c #DCAA95",
"#X c #DBA49B",
"$X c #DBAC9C",
"%X c #D4A69B",
"&X c #DDB09D",
"*X c #E4AB9B",
"=X c #E4A897",
"-X c #E8B29C",
";X c #F1AC9A",
":X c #DDADA3",
">X c #D8ACA6",
",X c #DCB2A5",
"<X c #D0B1AB",
"1X c #E6ABA4",
"2X c #EBB3A4",
"3X c #ECB4AA",
"4X c #E7B6A8",
"5X c #F4BAAC",
"6X c #F2B6A8",
"7X c #EABAB3",
"8X c #F3BCB4",
"9X c #EFAFB0",
"0X c #ECC3BA",
"qX c #F7C5B9",
"wX c #F6C1AD",
"eX c #AFB7C1",
"rX c #C0BBC1",
"tX c #D4CDD4",
"yX c #E9C8C3",
"uX c #F7CAC4",
"iX c #F7DAD5",
"pX c #EED8D5",
"aX c #F8E4DC",
"sX c #DEDBE1",
"dX c #E4DDE4",
"fX c #ECE5EC",
"gX c #ECE4E9",
"hX c #FDEBE5",
"jX c #F1E6EC",
"kX c #F4EBEE",
"lX c #FCECEC",
"zX c #F9E5E2",
"xX c #FAF3EE",
"cX c #EFE9F1",
"vX c #F4ECF3",
"bX c #F9EEF4",
"nX c #F9EEF7",
"mX c #F6F2F5",
"MX c #FAF2F5",
"NX c #F7F2F9",
"BX c #FAF3FA",
"VX c #FDF9FE",
/* pixels */
"T i 4.N.5 P a : i P R j W _ J H.%.-.;.M.N.4.` d i #.5.B.} i / p B.&.i / p H +.6 G G N.Z.( z / #.P , ( / J H G J p ; ; ( G.J J $.",
"[ 6 L +.5 j K a i [ W F _ [ ;.$.T S.J.;.Z.;.J d p #.;.5.( d ( d F.5.> z p P ( 4 T T J.E.;.H d #.J > { $.` T $.6.J s ; _ 6.4 k T ",
"$.5 s j 5 O H K i [ j @.S.[ 5.>.R M.Q.@.5.$.L j d P T <.( p K j ;.} j P 6.E.S.4 _ W -.@.[ ( j / T < ` $.T p L 5.J k O [ J.j 5 p ",
"[ p [ 7.5 5 3 3 4 T F { R.-.%.N.+.M.R.-.$.{ W i p #.P z c z c a a k w 8.F.<.E.p J R [ [ J T ( #.T > T / i ; $.G.W p 5 3.Z.$.; p ",
"{ p 4.G.; T ( p i ;.7.W ,.M.>.-.-.M.5.6.G.#.P d z K l w q 8 c q w K a a a a ) c R p } Z.W G E +.J ; #.( J +.4.3.W d > B.J.$.i d ",
"[ 7 @.N.5 p T J i S.R.M.D.>.M.%.L N.J.6.B.<.! 1 8 w w q w q h w t c g 8 8 t c g ~ z *.B.` L G %.J > ` ` +.5.3.J J j O +.G.j p p ",
"{ s 5 R + T R 4 > >.K.Q.!.@.@.;.J B.~.5.! K f 0 1 1 1 q 1 1 w q 1 x h g t t U Q c c U ! / ( H #./ i ;.&.&.&.L j J p 5 J T 5 4 p ",
"K 4 W $.; 3 p 4 ; j K.R.!.7.j / ! H.B.! g f q x x U x h x r % q r g g B g N r N r 9 q g K P / #.P 4 [ [ &.[ e i i 5 > $.N.5 4 6 ",
"K e ( $.3   k R 4 R Q.A.!.K.j d I <.| l h g w h q x x x h q q q f 1 h g t U v 9 r h U ~ ] K z &./ > 3.` p 4 d i i ; ; 3.E.4 p s ",
"} k ; 7 @ ; 0 e e 3 R.Q.Q.7.J H 0 ~ Q 1 : q q 1 % q q q t q q 1 0 1 h q q 9 9 t q 9 q Q ' U a | T e &.( p d i p 6 6 > J Z.p p 6 ",
"z 0 k ) # o : 3 @ O W !.~.+.T P c l w q 1 & 8 1 $ q l q t 8 $ $ 8 9 9 t w l 9 9 9 9 % q l c K | ! : J ` j p J p 5 4 ; $.E.J 5 i ",
": 3 ( ;.: p / H @ e F -.R.$.` ! a : $ 8 $ & r 9 % 9 B r y 9 & & & 9 y t v t r t v $ 9 w 8 l ] Q j 4 H ( J d { 6 ; > 4 %.;.4 k j ",
"> 3 j ( ; p z e @ p J { $.( ) ! a 8 8 q 8 = 9 = * u B u m y u n - n n u y - u B N r r r w t Q K z 6 j P ( T $.$.5 5 6 R $.4 p s ",
"; ; J $.; X : e O 5 @.{ _ J ! P g 8 & t t = u B B n m n V A  .A Z V n M m n - m y u y v 9 r x x i 6 k p i T B.Z.R 3 5 ;.E.[ ; p ",
"d 4 [ A.; 7 ) / ; $.7.!.Q.T P P l 9 & 9 * * m V o. .Z Z ..q.q.q.q.q.q.q.X.V n n u y y u u r v ] ) 4 j W R $.G.6.$.5 7 B.J.[ j L ",
"( 4 _ K.7 s R 3 ; A.K.Q.!.T L ' g 2 & u u m  .X.X.S S e.t.g.c.h.h.k.x.x.g.t.A M M * B N N y B | P 4 3.$.T [ Z.Z._ s ; $.Z.j J W ",
"( i ; d ; J R 3 3 $.>.6.G.p J ` z g 9 m m A p.x.k.x.x./.'.].'.'.+X].].`.n.c.t.....n u B N y U =.! i +.( 4.-.L J J k : T W ; T R ",
"j p 4 R o p ( T ; ( J G.eXj j ` c h m m A y.x.[.1X4X3X2X;X;X-X*X=X;X;X=XXXXXx.k.j. .u = u B Q | P e [ J W -.5.L R p ; $.4.; W E ",
"i ; ` G.p e ( 5 3 { T 6.E.$.i p 0 q u r.g.h.[.1X7X7X4X6X6X;X-X-X*X=X=X=X-XXX).).}.P.n * y B U <.) 3 #._ L L B.$.p p 3 4.K.J T W ",
"; p ( 8.K z K O ; T J k $.$.[ B.~ 9 n p.).[.+X2X7X7XwXqX5X;X-X-X=X2X6X=XXXOX%X,X,X>XO.u B r Q P K i %.( $.R ;.4.F i e 6.6.@.F T ",
"[ p L 6.p e J k ; 4 k $.J.+.4.6.P 1 m z.{.'.1X4X0XuXuXqXwX6XwX5X6X5X8X5X4X:X%X>X7X0Xs.Y Y ^ U } ! d B.+.;.-.>.6.j p 4 $.N.i J L ",
"J 4 H <.: e z 4 ; ( s :.Q.( _ G.$.: B s.).'.f.t.i.r.p.{.5XqXwX5X5X5X*Xx.t.w.r.i.7XiXs.B | ] ! *.! j [ W ( E M.6.p ; 3 p p ; L j ",
"H d j [ 3 # 3 3 ; T $.S.~.S.W Z.B.e = a.oXt.t.p.r. .Z w.).1X3X2X1X[.t.M C ..w.t.I.yXa.U P P ` ;.! z &.T _ W s s J i ; ( :.; J T ",
"` j @ : ; . j R ; 7 G.Z.K.E.+.4.$.) 9 2.}.z.%XU.Y.U.j.p.I.1X8X6X=Xk.t.i.v.z.x./.{.yX2.U 8.` P 3.} z ;.%.T s s i T s # Z.E.J _ ( ",
"T p . : @ o 4 p : j S.Z.Z.B.G +.z 9.B o.}.oXU.z.j.w.i.g.{.:XqX3X|.k.g.j.X.r.f.k.%XyXo.^ B.;.! &.` H &.$.W s ;.$.R p 5 N.B.( F J ",
"` j . @ @ o ; ; ; W -.J.!.4.X $.] a.^ A %X$XU.i.I.C q.g.).1X8X=X_.b.t.t.b i.f.h.:XuXX.d.a.! ) &.( j ;.-.L p @.;.J p ; $.6.i J R ",
"> e o : : . e T ; T F @.G.T 6 <.] s.s.S OX$XOXx.,Xg.f.k.#X*X-X=X`./.h.u.f.{.[.(.$XuXg.}.V.] ] 3./ H $.T s 6 %.6.R 5 @ p p ; W R ",
"o > @ 0 @ o p k ; i G F W J J *.N s.>Xi.'.*X$X:X{.#X/.+X2X2X6X*X2X].(.k.b./.+X+X,XuX|.9XT.| K ! ! z N.[ 7 s _ ;.j p ; z ( ; W J ",
"@ ; d #.p j P o ; p 5 F ;.J P V.^ s.8Xx.(.2X3X8X8X3X1XqX3X-X=X*X5X5X.X.X.X.X*X#X7XuX/.1XP.^ K P H j ( ( ( F 5 ; 5 3 ; :.N.J W L ",
"p 4 L ` ! : ( H ; J L ;.!.{ j 8.| 2.7X/./.2XqXqX8X8XuXqX8X1X+X*X+X6X].=X=X|.*X5XqX7X X#Xd.x ! H z j 4.[ >.{ j J L 3 4 5.5.T F j ",
"[ j d #.i : P p ; i 6.G.G.S.L 4.Q ^ >X{.).4XqXuXuXuXuX7X1X1X8X5X3X1X+X*X=X3X6X1X7X8X(.g.O.t P 3.! p #.J L E 4.4.W 5 ; } 5.p R J ",
"d j . : : 0 d @ ; W G.B.N.S./ B.! ~ Y.U.z.4X7XuXuXuX0XqX3X3X6XqX1X2X6X`.*X2X5X3X0X>Xx.%X .z H #.T 4 s j T -.+.%.$.3 ; e 5 O R s ",
"z k . ; . z ` 0 @ R 3.H.eXZ.i 5.L } T.<XP.%X8XuXuX7X8XqX*Xk.(.#Xk.h.=X'.OX2X5X6X3X{.7Xs.v ! H $.T 4 k J $.-.;.3.L 4 < j k < { L ",
"! k @ : @ p z p o H P 6.J.` > E L 5.F.T.Y.}.8X3X0XqX8X3X'.'.1X[. Xl.(.@X@X-X=X3X3XU.T.o.g c ( ;.J 4 ( ( { / J J k 5 ; #.5.O R j ",
"e : . . . e e @ , e 4 i s p 5 i > $.8.] 2.s.7X8XqX7X{.}.I.).|.1X|.k.f.f.b.+X*X:X>Xp.y | l i d ` H o ! H p i ; ; z ; . p [ O J z ",
"; # . ; o @ a : o 3 T d 4 > 5 %./ j %.! ~ 2.>X2X%Xt.k.{.{.9X.X|. X Xb.h.Z b.2X:XoX2.Q *.J d d T j e j p j i e i ; ; o j -.: i 4 ",
"K a . : : > c z , T ) j / H i $.P ( Z.4.*.^ }.:XOXt.e.x.I.k.|.|.|.k.h.q.e.b.1X{.Y.=.6.( J P J ( L e ( L z T #.;.j ; ; k J 5 J J ",
"P a   . @ @ @ ; o d K > J P H L j } N._ 3.B j.$X@XOX'.k./.|.1X9X1X/./.x.'.=X'.oXT.x T L H H j [ L 3 ( L H T ( ( $.O ; ; ; o ; ; ",
"U a @ c 8   @ > . ) F.! j / ( H p } Z.j ! B i.).@X*X2X=X|..X XC. Xl.'.-X_.].|.oXO.q f j K i z ( z e ! P 3 4 #.} T 4 O T -.p . ; ",
"c e @ ! 8 : ! p @ K *.P K z P ( p T K.3.~ B i.x.@X*X=X2X1X#X X/. X|.*XXX'.'.'.z.B 8 z f z z a R j ; ` z p j p j j : ; [ [ R O @ ",
"K f @ ~ 8 : a @ . z i : P K d K d j -.Z.=.y j.u.OX@X$X:X4X{.i.q.I.[.%XXX`.'.x.j.N w ! / f z w Q a ; z e ) ` @ : j 3 # ( <.p @ # ",
"P z o w : f c @ . P *.0 d a i d i T ;._ *.y I.x.c.@X:X,X>XP.O...g.%XoXOX@X`.x.P.y 8 &.H.I 1 l ! a > / H L T 0 : z p : p p @ # o ",
"a 0   $ $ $ w > @ l 3.z : 0 i @ O ;.S.&.q u U.|.t.I.}.P.o. .^ m X.z.U.).$Xx.{.Y.B w R $.I i : ! a ; d d ) | c 3 e 3 : : ; o ; : ",
"8 8 . @ @   @ $ o @ e > p : @ e o #.J.8.2 * I.*X).w.w.V B u u - B o.r.g.x.(.$Xz.u 8 j p i f > H k o K z : > e : ; 3 3 ; 3 o : H ",
"c a . @ $ .   . . : w @ e 0 , 1 1 U 1.1.B b /.|.{.j.M V B y u - n m A q.(.(.%XP.n y z | 1 0 4 T z . z p o : a e ; 0 e @ # o ; z ",
"k q   $ $ o . . . a 1.z > f d @ @ =.F.a.d.w.'.*XOXU.s.D n - - n m n q.I./.(.OXoX .a.~.L.q @ 3 ( p @ H e @ > 3 : : : 3 ; @ @ # ; ",
". : . o . : 8   . 8 ) 0 > > d P W.tXo.r.t.g.'.@X%X).U.j.X.A V M A i./.b.[.(.(.$Xj.A yXhX~.c . 3 0 @ R c : 3 a : : # # @ @ o @ @ ",
"@ @   @ @ 8 f .     . o a <.~.sXVXL.d.x.h.c.].*X$XoXI.).I.I.z.j.z.h.b.m.m.`.XX$X$Xr.z.iXzXtX1.e @   : q a l K l . 0 e @ @ . o @ ",
"@ 8 . : . . % . 2 =.L.~.sXvXnXvXlXT.z.I.b.b.].=X*X%X{.{.{.)./.c.c.b.b.m._.].+X=X$Xz.w.iXpXpXmXsXW.1.l $ : 8 c ) > $ > @ @ . ; p ",
"P c   . z V.~.~.sXcXbXnXnXvXfXfXbXoXj.{./._.].*X2X$X%X$X$XOX(.b.b.m.n._._.`.].=X$Xz.w.iXaXpXMXmXBXvXdX~.8.Q x K z g > @ @ @ p ! ",
"l : > B.tXfXfXvXfXfXfXjXvXcXvXBXBXpXd.oX).OXOX@X2X:X%X%X$X@X+XXX]._.n.`.].].+X@X$Xg.P.zXzXkXjXkXfXgXjXmXMXdXrXE.~ z p > @ . j ! ",
"U H.tXfXgXdXdXfXfXfXcXvXvXvXnXnXbXVX^.P.,XOXOX$X$X&X$X$X@X@X+XXXn.m.`.].].`.+X%XU.j.yXlXlXBXjXjXvXjXjXfXfXvXnXjXcX~.K . @ @ p L ",
"tXfXcXfXfXcXfXfXvXnXNXNXnXNXNXnXbXMXMXT.U.4X$X$XOX$X$XXX_._.n.b.b.n.`.'.`.'.OXoXU.7XlXlXMXjXvXvXjXvXvXjXfXfXvXnXvXVXvXH.0   l } ",
"dXfXfXfXvXvXvXnXvXvXnXNXNXNXNXBXMXbXMXlX<XY.,X,X%X$X*X'.(.m.b.b.b.n.XX'.'.{.oXoXyXlXlXlXkXfXmXvXvXvXvXMXvXvXvXvXcXcXcXVXsX<.g *.",
"fXvXvXvXvXfXvXvXnXbXNXBXNXMXmXNXNXmXMXxXhXpX7X>X>X%X#X|.[.m.b.b.b.'.OX{.).>X0XiXlXlXlXkXjXMXNXvXMXvXjXMXvXbXvXvXvXNXcXjXNXVX| g ",
"vXvXjXnXnXvXnXvXnXNXNXnXNXNXNXNXVXNXNXmXkXxXlXaXuX7X4X:X%X).I.).%X,X7X0XiXaXhXlXlXlXlXkXMXMXvXmXvXbXvXMXjXvXnXnXNXvXnXNXfXVXtXh ",
"vXvXvXbXnXnXbXnXNXNXNXNXNXNXNXNXBXBXBXMXMXlXlXhXlXlXlXhXzXaXaXaXhXhXhXlXlXlXlXlXkXbXbXbXMXMXbXvXbXbXbXbXMXMXMXMXvXMXvXmXjXjXVXW.",
"nXvXvXbXnXbXbXbXNXNXNXNXNXNXNXNXBXBXBXBXBXMXMXMXkXkXlXlXxXxXxXMXhXhXhXlXlXkXkXkXvXbXMXMXMXMXbXvXbXbXbXbXMXMXMXMXMXvXbXbXBXvXBXgX",
"bXvXvXvXbXMXMXmXMXMXNXNXNXNXBXNXNXNXBXVXVXVXVXBXMXMXMXbXvXkXkXkXlXkXkXvXbXmXmXNXNXNXNXMXMXMXbXbXMXMXMXMXMXMXMXMXBXMXMXjXMXkXgXMX",
"vXbXvXvXbXMXMXMXMXMXNXNXNXBXBXNXNXBXNXNXNXNXVXVXVXVXVXBXNXNXmXmXNXMXBXBXBXBXBXBXBXNXNXMXMXMXbXbXMXMXMXMXMXMXMXMXMXMXbXvXMXkXkXjX",
"jXvXkXkXbXMXMXMXMXMXMXMXBXBXBXBXBXNXNXBXBXBXNXVXVXBXBXBXVXVXVXVXVXVXVXBXBXNXmXmXNXMXMXbXbXMXMXMXMXMXMXMXMXMXMXMXbXMXbXMXMXgXMXlX",
"gXkXkXjXvXMXmXMXMXMXMXMXMXBXBXBXMXMXBXBXBXBXBXBXBXMXMXMXMXMXBXBXNXBXNXmXnXmXNXMXmXmXbXbXMXMXMXMXMXbXvXbXMXMXMXMXMXMXbXbXbXgXgXkX",
"gXkXkXjXmXMXmXMXmXMXMXMXMXBXBXBXMXMXMXBXBXBXBXBXmXmXmXmXMXMXBXMXbXmXmXmXMXMXBXMXbXbXMXMXMXMXMXMXmXvXvXvXMXMXMXMXbXMXMXlXMXkXgXkX",
"dXkXvXjXmXMXmXBXmXmXMXMXMXNXBXMXMXmXMXMXBXBXBXMXmXmXmXmXmXMXbXbXbXNXBXMXMXMXMXMXbXMXMXMXMXMXMXMXmXvXvXvXMXMXMXMXbXMXkXMXkXdXjXlX"
};
