/* XPM */
static char *e414dac108f94d5580629e7dce610da9oPFJ1UqSmbbBdIMF[] = {
/* columns rows colors chars-per-pixel */
"20 20 182 2 ",
"   c #030007",
".  c #0C0C13",
"X  c #0E151B",
"o  c #13121B",
"O  c #151B1F",
"+  c #2D1B17",
"@  c #341B17",
"#  c #37221F",
"$  c #161A21",
"%  c #1A1C23",
"&  c #1C1D2B",
"*  c #141623",
"=  c #331F20",
"-  c #1D222B",
";  c #1A282A",
":  c #1E2B31",
">  c #242021",
",  c #2D2524",
"<  c #21242C",
"1  c #2B2529",
"2  c #2C2A2D",
"3  c #352A2A",
"4  c #392B2C",
"5  c #232B34",
"6  c #2A2C33",
"7  c #252E39",
"8  c #2E2F39",
"9  c #232732",
"0  c #342E34",
"q  c #2D3037",
"w  c #2A3239",
"e  c #353135",
"r  c #33353D",
"t  c #3C363F",
"y  c #32393F",
"u  c #3A3434",
"i  c #522818",
"p  c #422829",
"a  c #493739",
"s  c #5D3E3A",
"d  c #66402D",
"f  c #7F503E",
"g  c #2D3742",
"h  c #2D3943",
"j  c #373741",
"k  c #3A3740",
"l  c #333C44",
"z  c #3B3C44",
"x  c #363F4B",
"c  c #3E3E48",
"v  c #423F49",
"b  c #3E4345",
"n  c #364049",
"m  c #3A434B",
"M  c #3D4B4C",
"N  c #3D4352",
"B  c #3E4851",
"V  c #3B4B58",
"C  c #4D4346",
"Z  c #45454C",
"A  c #484649",
"S  c #49474A",
"D  c #54494F",
"F  c #504543",
"G  c #51504E",
"H  c #424B53",
"J  c #4E4E52",
"K  c #414858",
"L  c #464652",
"P  c #554F53",
"I  c #4E545C",
"U  c #4F585F",
"Y  c #4B5556",
"T  c #53555D",
"R  c #51595C",
"E  c #515153",
"W  c #684945",
"Q  c #61565C",
"!  c #7A5D59",
"~  c #7A5D57",
"^  c #4E5862",
"/  c #555C63",
"(  c #675F6A",
")  c #755C62",
"_  c #576069",
"`  c #5F646A",
"'  c #576071",
"]  c #5F6877",
"[  c #68606D",
"{  c #686C6C",
"}  c #71676F",
"|  c #7C6265",
" . c #686878",
".. c #69777A",
"X. c #62707B",
"o. c #727175",
"O. c #7B7275",
"+. c #894E46",
"@. c #845A52",
"#. c #855F5C",
"$. c #90614D",
"%. c #936558",
"&. c #866C6F",
"*. c #966E62",
"=. c #9F7066",
"-. c #94716F",
";. c #807677",
":. c #977373",
">. c #B67F78",
",. c #BA7E73",
"<. c #B7857E",
"1. c #BD857C",
"2. c #B38377",
"3. c #C5877C",
"4. c #727584",
"5. c #907C85",
"6. c #778683",
"7. c #87868C",
"8. c #A98680",
"9. c #AE8A83",
"0. c #AB8C89",
"q. c #B09085",
"w. c #B9958C",
"e. c #BE9382",
"r. c #AC9296",
"t. c #BC9392",
"y. c #BF9996",
"u. c #B1979A",
"i. c #B59290",
"p. c #919BA4",
"a. c #A6A3A9",
"s. c #B8B3BA",
"d. c #CA8A80",
"f. c #C79788",
"g. c #D3958A",
"h. c #CA9E95",
"j. c #D49991",
"k. c #CFA596",
"l. c #C1A099",
"z. c #C6A89E",
"x. c #DAA39B",
"c. c #D0AB9B",
"v. c #D3ABA2",
"b. c #DAAAA4",
"n. c #D7ABAD",
"m. c #CDB0AA",
"M. c #DFB4AE",
"N. c #D8B1A7",
"B. c #CEB9BE",
"V. c #CCB4B0",
"C. c #D1B7B8",
"Z. c #D9B8B5",
"A. c #E6AFA8",
"S. c #E7AAA1",
"D. c #EAB2A6",
"F. c #E7B5A7",
"G. c #EFBDB2",
"H. c #ECBFB9",
"J. c #EDC2B9",
"K. c #F8C8BE",
"L. c #CAC8CD",
"P. c #D1C4CE",
"I. c #D2CDD3",
"U. c #E9C8C5",
"Y. c #FDD1C8",
"T. c #EED9D4",
"R. c #F6DAD7",
"E. c #F2DEDF",
"W. c #EFE6EB",
"Q. c #F1E5EF",
"!. c #F4EBEE",
"~. c #FDEEED",
"^. c #F7E4E4",
"/. c #FFF1EE",
"(. c #F5ECF3",
"). c #F9EFF0",
"_. c #F6F1F6",
"`. c #FCF3F4",
"'. c #FFF8F7",
"]. c #FCF4FA",
"[. c #FEF8FC",
"{. c #F7F4FB",
/* pixels */
"N h 7 V '  .[ t R m J J v [ n l m x H m ",
"K x h X.] 4.( 0 q 6 2 D Z L B x _ n H l ",
"h 7 7 p.^ R e , 0 > 4 4 0 r H m n - n l ",
"g 7 X / R < , + 3 = @ # 3 1 b y l 7 m l ",
"r r 6 o.S 1 + s s #.@.W p 4 e e I H H B ",
"k e r o.A 4 ~ v.M.b.A.b.:.a C A / H l H ",
"z Z O R { a 9.h.b.G.D.>.n.| u b U n l m ",
"6 o ; 6.{ F 8.=.%.F.,.+.t.&.G Y H h B B ",
"& 9 ; M M ;.l.h.f.A.g.1.n.u.E M m g l n ",
"r 7 : ..` O.m.Y.K.D.S.S.U.r.v l I m l l ",
"& & 9 I c Q 0.H.x.j.d.j.M.) 0 z x w 9 l ",
"- * < j 8 D ! h.<.x.3.1.i.a t r l w w 9 ",
"7 - - Z r P W 9.J.2.j.b.! 3 z 8 r 6 r < ",
"- % % 6 . C W w.@.i f k.~ 4 1 r j - - $ ",
"o   . 6 T 5.-.v.*.d $.f.9.r.D % o % $ O ",
"1 } a.L.].B.t.v.N.c.e.k.y.C.`.s.7.T . % ",
"P.].].).[.^.V.m.z.q.w.l.C.E.~.[.]._.a.z ",
"].(.(.`.).'.~.T.U.Z.U.R.^.`.`.(.(.[.{.I.",
"(.(.].[.(.`.'.`.'.~././.~.`.`.(.`.!._._.",
"Q.].]._.].`.~.'.`./.~./.~.!.`._.`.].(.W."
};
