/* XPM */
static char *_5c90c83ad1840479e88048c48d70b1b9cHRIOiHeCoKnh9u[] = {
/* columns rows colors chars-per-pixel */
"20 20 46 1 ",
"  c #0D1617",
". c #1A2527",
"X c #192C2D",
"o c #000C0D",
"O c #2D8DB4",
"+ c #5F9EB6",
"@ c #177EAA",
"# c #0A1212",
"$ c black",
"% c #166993",
"& c #002024",
"* c #003F46",
"= c #01373C",
"- c #000809",
"; c #9ABABF",
": c #0B1B1E",
"> c #8EC4CA",
", c #2D7997",
"< c #46848F",
"1 c #45666A",
"2 c #42C9DA",
"3 c #64CBDD",
"4 c #001A1D",
"5 c #107D89",
"6 c #013136",
"7 c #186771",
"8 c #092A2E",
"9 c #279AA8",
"0 c #96DBEA",
"q c #69D9E7",
"w c #1A616A",
"e c #2C7F89",
"r c #8FC4D7",
"t c #23818D",
"y c #6AA2AA",
"u c #366066",
"i c #2D5156",
"p c #219ED6",
"a c #177DAA",
"s c #5A9DB6",
"d c #177CA8",
"f c #2C8DB4",
"g c #48C0F3",
"h c #0B71AB",
"j c #0D252D",
"k c #1A2C0D",
/* pixels */
"3++++++++sOfOOOOOOOp",
"+.     ######     Xa",
"+ $$$-:u1111u:-$$$ @",
"+ $o=7wXXiiXXw7=o$ @",
"+ -**: $.>>.$ :**- @",
"+ &##>; .rr. ;>##& @",
"+ $o#;0e#,,#e0;#o$ @",
"+ $=& e2<yy<2e &=$ @",
"+ $458#<3223<#854$ @",
"s $$69.#tqqt#.96$$ d",
"O $$69.#tqqt#.96$$ %",
"f $458#<3223<#854$ %",
"O $=& ,g<yy<g, &=$ %",
"O $o#;0,#,,#,0;#o$ %",
"O &##>; .rr. ;>##& %",
"O -**: $.>>.$ :**- %",
"O $o=7wXXiiXXw7=o$ %",
"O $$$-:u1111u:-$$$ %",
"OX     ######     X%",
"pa@@@@@@@d%%%%%%%%%h"
};
