/* XPM */
static char *ad2d720d0dc84de28c766bfb8bac455c[] = {
/* columns rows colors chars-per-pixel */
"20 20 66 1 ",
"  c black",
". c #CAF1FA",
"X c #0E1718",
"o c #00436B",
"O c #BAEBF6",
"+ c #558DA4",
"@ c #030707",
"# c #162628",
"$ c #192B2D",
"% c #060A0B",
"& c #83E0EC",
"* c #237CA2",
"= c #55D2E1",
"- c #90E4F0",
"; c #203639",
": c #0C6C97",
"> c #2A4C50",
", c #0A1011",
"< c #042124",
"1 c #44595C",
"2 c #5D9BB3",
"3 c #61D6E5",
"4 c #A7E7F2",
"5 c #5B7579",
"6 c #9FE5F0",
"7 c #2DBFD1",
"8 c #12BCD1",
"9 c #49D0E1",
"0 c #196A8F",
"q c #1278A7",
"w c #015681",
"e c #335255",
"r c #07B0C4",
"t c #37C9DB",
"y c #3E585B",
"u c #C2EDF7",
"i c #76DBE9",
"p c #077482",
"a c #D5F5FE",
"s c #5FCCD9",
"d c #22B4C4",
"f c #2A89B0",
"g c #1F4C52",
"h c #0C5781",
"j c #0F628C",
"k c #044A73",
"l c #424C4D",
"z c #515D5E",
"x c #B1E2E8",
"c c #38757D",
"v c #69DAE8",
"b c #A4DCE3",
"n c #192021",
"m c #ACEBF5",
"M c #72BAC3",
"N c #4F89A2",
"B c #78DEEB",
"V c #99E2F0",
"C c #83ACB4",
"Z c #6EA7B0",
"A c #69BAC5",
"S c #209DD5",
"D c #516A6E",
"F c #497379",
"G c #72BCDC",
"H c #CA176B",
/* pixels */
"G222+++++N******fffS",
"2>>;$$#X%%%%X#$$;>>q",
"2>;$#X@      @X#$;>q",
"2;$#%lz      zl%#$;q",
"+$#, 1x1    1x1 ,#$:",
"+$X  e&b5nn5b&e  X$:",
"+#@  yv-mMMm-vy  @#:",
"+X   1-Ou--uO-1   X:",
"+%   yB&.OO.&By   %:",
"N%   e=9VaaV9=e   @:",
"0    @c3=OO=3c@    k",
"0 gZC5pti44itp5CZg o",
"0 Fa.O38t&&t83O.aF o",
"0 5...4=r77r=4...5 o",
"0 D4OuO6srrs6OuO4D o",
"0 ,A-66&iddi&66-A, k",
"*, >s3=99dd99=3s> ,h",
"*#% g7788pp8877g %#h",
"f;#,@<<<<@@<<<<@,#;j",
"Sq::jwwwwwoooookhhjq"
};
